PathFileType	4	(X/Y/Z)	Patient4_TMGait_0pt5_02_right_08.trc.trc
DataRate	CameraRate	NumFrames	NumMarkers	Units	OrigDataRate	OrigDataStartFrame	OrigNumFrames
77.348066298343	77.348066298343	7	33	mm	77.348066298343	71	       141
Frame#	Time	Sacral			L.Shoulder			Chest			R.Shoulder			Neck			R.ASIS			L.ASIS			R.Thigh.Superior			R.Thigh.Lateral			R.Thigh.Inferior			R.Patella			L.Thigh.Superior			L.Thigh.Lateral			L.Thigh.Inferior			L.Patella			L.Shank.Superior			L.Shank.Lateral			L.Shank.Inferior			R.Shank.Superior			R.Shank.Lateral			R.Shank.Inferior			R.Heel			R.Midfoot.Superior			R.Midfoot.Lateral			R.Toe			L.Heel			L.Midfoot.Lateral			L.Midfoot.Superior			L.Toe			L.Elbow			L.Wrist			R.Elbow			R.Wrist			
		X1	Y1	Z1	X2	Y2	Z2	X3	Y3	Z3	X4	Y4	Z4	X5	Y5	Z5	X6	Y6	Z6	X7	Y7	Z7	X8	Y8	Z8	X9	Y9	Z9	X10	Y10	Z10	X11	Y11	Z11	X12	Y12	Z12	X13	Y13	Z13	X14	Y14	Z14	X15	Y15	Z15	X16	Y16	Z16	X17	Y17	Z17	X18	Y18	Z18	X19	Y19	Z19	X20	Y20	Z20	X21	Y21	Z21	X22	Y22	Z22	X23	Y23	Z23	X24	Y24	Z24	X25	Y25	Z25	X26	Y26	Z26	X27	Y27	Z27	X28	Y28	Z28	X29	Y29	Z29	X30	Y30	Z30	X31	Y31	Z31	X32	Y32	Z32	X33	Y33	Z33	

71	11.365000000000	571.826862267550	1008.407910031607	538.395623950343	746.886016897026	1435.185850081970	355.831856253326	862.697571270244	1354.602911682950	501.795291837269	801.498233296332	1423.644558951122	687.415140512823	762.924711534570	1488.436724280315	509.957630806781	803.861408086110	934.881825781637	635.749353115066	769.889230672536	953.878936260993	362.568666991645	802.960151812636	723.967620964226	608.474082424167	701.898503413179	630.210175223799	672.323419479961	761.282559147612	564.684516263456	591.238017027404	743.190494815251	479.406764696589	594.872190074398	839.782611741195	766.819857804274	389.539223125212	784.931432598567	640.022636214945	314.752822601331	887.633325631152	579.110756257806	373.816998685309	914.311752865482	517.064851721994	371.151057897565	901.811274594807	446.398680361806	360.401200658227	842.807555739798	313.759806995431	309.068048591160	935.305226939680	219.705076004872	363.546022004119	705.849990003550	395.771948668492	601.796631179226	624.326353732173	300.722046312129	663.615033254089	652.995595321877	202.291597289203	599.134107232025	502.196001376362	44.411943451760	567.314312725907	673.972638868818	96.264458543813	604.997082019203	584.394381933789	36.250329679547	642.926823038447	792.824559645516	40.116334971267	635.030864802150	858.598389517733	40.374660873008	402.420857444216	932.522195932719	44.983005958882	322.313458480863	1002.469192619192	122.004036024600	342.136033748839	1135.959947726627	93.665194119588	316.911767829220	620.650274801089	1104.594412436644	243.477154142726	630.279827792201	844.715464817530	215.684189143609	888.539222995556	1095.235348577670	803.576599032968	1132.026258047263	1111.483226039073	736.445265710652	
72	11.377928571429	573.129190506264	1006.882412181973	535.973385862744	746.368139378349	1433.799808161489	352.792325098116	862.514743588005	1354.058254854552	498.978661576501	800.673555333290	1423.035528578798	684.458337662366	761.988287097114	1487.352389874392	506.868043402778	805.112497222221	934.039964162793	634.192014027344	771.887583791261	952.246059107448	360.916491063325	802.359602472104	722.574720620143	607.419199061206	700.036442971750	629.707839745083	671.266056869358	758.868014137839	563.581959838575	590.437373345057	739.821574712565	478.190248486580	593.914779866697	842.083298272128	764.983838518350	388.198433971391	785.616332921005	637.590935107322	314.668536983579	888.714885888726	577.135509240485	373.241564604562	914.487869996557	514.174329806595	371.235351322871	901.324773989316	443.038542086826	360.915636974772	840.166422703540	311.073655034208	310.384040281925	931.188435645301	215.889027946381	365.146624331650	701.800907351388	394.942450417647	601.024944326510	619.560884572748	300.615280999772	663.122292520644	647.354999089171	201.837666464965	598.758890938461	495.663544496455	44.359026988912	567.342303829454	667.393244668931	96.209944145616	604.911449887917	577.860373254867	36.181166508814	642.927060148830	786.276318447550	40.044314048500	635.070761439030	850.807112257634	39.344526618676	404.217927151532	924.728378154300	42.344357483311	323.954671058273	997.007945166376	116.808383965935	344.436155629269	1129.715406206611	84.356758789753	318.805617903041	618.871181334639	1103.672449476751	241.462265392666	627.714546804678	843.608801466365	214.456944438293	890.058372664460	1094.818962797524	799.220130831063	1131.534866286830	1118.233335428549	728.178638817241	
73	11.390857142857	574.481151729701	1005.289987512950	533.365564321835	745.939797804111	1432.298340408969	349.531952831282	862.371210355699	1353.515093428205	496.046126650506	799.758229001018	1422.505179894740	681.320679909038	761.068960601462	1486.251124485555	503.520471368664	806.380650276342	933.115646563998	632.577419406111	774.055714963146	950.616912436006	359.252959612773	802.132797416700	721.151090630982	606.315537470865	698.635238499712	629.071775909706	670.034658944688	757.035585432799	562.410255922587	589.469276361444	737.067259272388	476.783942807144	592.775479112061	844.495196348304	763.145115531328	386.977987791382	786.666223536417	635.451611846070	314.387407678860	889.976951117850	575.345020615951	372.782179791271	914.696305113684	511.366976945662	371.407361814336	900.939273038584	439.789780660842	361.310539092833	837.692236034412	308.571294924546	311.350870321249	927.051705280170	212.196725670104	366.583030150769	698.238252634030	393.956200976712	600.097424552515	615.151976175476	300.480357573445	662.504508746581	641.903794219328	201.326087004651	598.297955025815	489.142201239059	44.399053679313	567.366081057513	660.845122066699	96.179641505983	604.799041370170	571.345499043818	36.175054485620	642.922480778813	779.751069583202	39.939664960455	635.120571004632	842.764226282807	38.433759775126	405.570099135005	916.811767412579	39.981580858136	325.283969519079	991.343275847904	111.856252340727	346.701472860934	1123.288828476099	75.358072412451	320.877036189948	617.663131392537	1102.407778440639	239.216303394281	625.886374114172	842.185381412935	213.014144893823	891.485258576324	1094.539998735833	794.962011078421	1130.891732278412	1124.118034450527	720.136162681260	
74	11.403785714286	575.830156250810	1003.724356921344	530.628081181139	745.606936689879	1430.753063350471	346.078639625277	862.278696014470	1353.014120945495	493.001546015180	798.830480502693	1422.127358178052	678.010173689389	760.222024444074	1485.205704389930	499.928218708345	807.613906754012	932.170332962059	630.875491062287	776.277674756263	949.097195029087	357.547678075478	802.293050969838	719.765260495976	605.111564457201	697.772707325379	628.324121612431	668.600363247906	755.889797016981	561.197474807865	588.304429580710	735.082164662979	475.188721205841	591.460073818925	846.946946616912	761.488524962402	385.846045938926	788.085001034050	633.768272816440	313.875984659340	891.437961214504	573.908230533225	372.379722263540	914.981917391852	508.842909406818	371.579195967419	900.719164065979	436.852897280902	361.508349914753	835.531338537246	306.426746600029	311.876844500428	923.085202944267	208.860851520347	367.761785935518	695.272482333644	392.829183178469	599.009628761073	611.179192390927	300.368260649476	661.749701618251	636.704065463477	200.801857564567	597.755777716285	482.647091622612	44.631694714689	567.387806571544	654.373829075496	96.197745789408	604.670014417559	564.865206678902	36.285516274268	642.911066287709	773.262879277654	39.789038754578	635.180314708831	834.845077378718	37.724001137132	406.493381356737	909.101989872129	38.031297311352	326.277002128711	985.672613309800	107.460005716656	348.780958976326	1116.911425159848	67.237949101681	322.932962946808	617.080586634147	1100.845033293691	236.747981608556	624.800256609046	840.492858832435	211.341488791608	892.762183896801	1094.448487852860	790.849191010653	1130.131917600004	1129.088658769081	712.384359694986	
75	11.416714285714	577.125758903170	1002.286929698171	527.814779100258	745.365612941444	1429.247804085885	342.470565705989	862.242418744590	1352.601056888190	489.852200736310	797.969956434082	1421.975763644562	674.541670553292	759.492509117526	1484.292958457578	496.120536910746	808.761615762526	931.281142458322	629.057201689537	778.442361572600	947.789907011909	355.760858296792	802.826424419926	718.496643464468	603.755757481891	697.505631287235	627.501825825673	666.950551180742	755.513907484068	559.985303717769	586.930465762557	734.005924585303	473.419071194699	590.007737358970	849.384963730535	760.199664838115	384.756056519385	789.869087907694	632.667623575221	313.116625099213	893.109595837478	572.955485622142	371.957611614370	915.391347097702	506.755811051366	371.651922785762	900.696035063025	434.372752348294	361.455536686323	833.741562867000	304.774539649085	311.904768455933	919.362704036537	206.042293420887	368.617696956065	693.001844363449	391.593391423970	597.780677042743	607.709136832827	300.345116255814	660.859657395351	631.818811220813	200.326103920106	597.150388756136	476.199208620511	45.177902660500	567.409944045399	648.035539855768	96.290977283524	604.539790528118	558.437383160043	36.577228914092	642.891068905831	766.826214941320	39.583582193392	635.248876109467	827.268272998521	37.248687890741	407.031009799685	901.769998454768	36.557470681107	326.933668205501	980.066707475437	103.834278640656	350.544591382484	1110.684719565630	60.420344043450	324.789860760044	617.169605748174	1099.049766414601	234.069274269175	624.476628338697	838.598201152295	209.433624473115	893.819388486429	1094.591688085715	786.925691082605	1129.264485107278	1133.101931669089	704.977534306101	
76	11.429642857143	578.325552132103	1001.074003745629	524.968860688820	745.202812190394	1427.868131743189	338.751859716704	862.259691241951	1352.321081055241	486.609141336687	797.245027172538	1422.113876486699	670.936149850556	758.908195017045	1483.583436436834	492.140335873571	809.781009956274	930.531188032692	627.099748110202	780.458238606374	946.781321175043	353.849495531608	803.700813125555	717.426425957250	602.208271948155	697.869436738052	626.651551104070	665.092197199730	755.969586694714	558.825079267154	585.356851883643	733.955885406048	471.502336399932	588.490788221227	851.769931437035	759.426685506299	383.651439753066	791.983890012193	632.212549545622	312.109061465510	894.968054490205	572.543612402399	371.431885380419	915.940992652387	505.186500237053	371.535466073532	900.848118830988	432.420671103721	361.133800928405	832.287544429477	303.684487959098	311.429861653679	915.854757002031	203.818258469748	369.127361058615	691.509224611452	390.293310509591	596.453440265416	604.795422904488	300.486961148746	659.851294050688	627.310622418421	199.971279967974	596.512799798431	469.826588506178	46.172895429836	567.435281642675	641.894117956783	96.485482418390	604.427748973946	552.082137385803	37.122398392369	642.861244499292	760.454056317914	39.320928457579	635.323539999953	820.112071894834	36.997880614338	407.246500787499	894.853166328364	35.556080399827	327.279697237046	974.505319074530	101.078489715030	351.908464837339	1104.611347721731	55.138294971544	326.310124555775	617.955941815261	1097.102358441227	231.195084172894	624.948762648428	836.581645761935	207.293877407412	894.580980127855	1095.008676447665	783.230931621855	1128.273557208535	1136.120790869620	697.955997272619	
77	11.442571428571	579.400834800790	1000.163107692679	522.116371097372	745.099156364592	1426.690069925558	334.966891779982	862.319770149143	1352.213526757020	483.287325830075	796.699892507965	1422.585674223874	667.219165618572	758.474988825672	1483.131765525514	488.039135719030	810.642937509429	929.997867292781	624.990929005803	782.265486208936	946.129785651134	351.776150472277	804.878404700914	716.627077585293	600.451004339048	698.880902945752	625.822451883352	663.052072651497	757.298389573613	557.771206763598	583.615829323281	735.020635063474	469.476551145110	587.006901212925	854.071077961364	759.244920624065	382.468346964361	794.337388201693	632.382266004594	310.871158020737	896.931460060787	572.635659383630	370.723357855560	916.592425354481	504.132700427411	371.168427917550	901.092334425081	430.991648239241	360.563737441781	831.055880020010	303.149692715214	310.508120363333	912.461851105378	202.185223724279	369.314012254238	690.859817056381	388.980675108196	595.090072202687	602.481167338767	300.872630842596	658.755060871349	623.240733242288	199.814396916023	595.883653829771	463.565687592885	47.756968213056	567.466850586118	636.016947990005	96.803439493590	604.354741293947	545.822009372193	37.996182608731	642.820819271152	754.155759910489	39.006202502030	635.399677149128	813.351509557736	36.931152407137	407.215299020462	888.297703264239	34.970483077973	327.363183422708	968.923716709754	99.180509729652	352.847066718610	1098.637455288861	51.422908940333	327.422212315803	619.435280222619	1095.089775462923	228.142479819406	626.257287434342	834.528725559096	204.933550379636	894.970513161373	1095.724268076069	779.797104637996	1127.121254498091	1138.116816301998	691.346143589085	
